<svg fill="none" xmlns="http://www.w3.org/2000/svg" viewBox="0 0 154 21">
  <path fill-rule="evenodd" clip-rule="evenodd" d="M0 0h18.28a6.25 6.25 0 0 1 6.21 7.26 6.3 6.3 0 0 1-1.53 3.23A6.3 6.3 0 0 1 18.28 21H0V0Zm4.19 4.2v4.2h14.09a2.09 2.09 0 0 0 1.97-2.1 2.1 2.1 0 0 0-1.97-2.1H4.18Zm0 8.4v4.2h14.09a2.1 2.1 0 0 0 0-4.2H4.18ZM27.29 0h4.18v21h-4.18V0Zm34.39 4.2V0h23.09a2.09 2.09 0 0 1 2.04 2.52c-.08.4-.29.78-.58 1.07l-9.84 9.87-2.96-2.97 6.28-6.29H61.68Z" fill="#6691FF"/>
  <path fill-rule="evenodd" clip-rule="evenodd" d="M85.2 16.8V21H62.12a2.09 2.09 0 0 1-2.05-2.52c.09-.4.29-.78.58-1.07l9.84-9.87 2.96 2.97-6.28 6.3 18.03-.02ZM58.8 0v4.2H48.69V21H44.5V4.2H34.44V0H58.8Zm50.6 16.94H94.67L91.98 21h-5L100.9 0h2.24c4.61 7 9.26 14 13.93 21h-4.99l-2.7-4.06Zm-11.92-4.2h9.12l-4.57-6.87-4.55 6.87Z" fill="#6691FF"/>
  <path d="M122.97 0h-4.2v20.99h4.2V0Z" fill="#6691FF"/>
  <path fill-rule="evenodd" clip-rule="evenodd" d="M126.2 0h2.95l10.95 10.98L151.04 0H154v20.99h-4.19V7.17l-9.71 9.75-9.73-9.75v13.82h-4.18V0Z" fill="#6691FF"/>
</svg>
