<svg viewBox="0 0 60 60" fill="none" xmlns="http://www.w3.org/2000/svg" class="calc-loans__badge"><path d="M42.95 25.15c.61-4.05-2.48-6.24-6.7-7.7l1.37-5.49-3.35-.83-1.34 5.35c-.88-.22-1.78-.43-2.68-.63l1.35-5.39-3.35-.83-1.37 5.5-2.14-.51v-.02l-4.6-1.15-.9 3.57s2.48.57 2.43.6c1.36.35 1.6 1.24 1.56 1.96l-1.56 6.26c.1.02.21.06.35.11l-.36-.09-2.18 8.78c-.17.41-.59 1.03-1.54.8.04.04-2.43-.61-2.43-.61l-1.66 3.83 4.35 1.08 2.39.62-1.39 5.56 3.35.83 1.37-5.5c.91.25 1.8.48 2.67.7l-1.37 5.47 3.35.83 1.38-5.55c5.7 1.08 10 .65 11.8-4.51 1.46-4.16-.07-6.56-3.07-8.12 2.19-.5 3.84-1.94 4.27-4.91zm-7.64 10.73c-1.04 4.15-8.04 1.9-10.3 1.34l1.83-7.36c2.27.56 9.55 1.68 8.47 6.02zm1.03-10.79c-.94 3.78-6.77 1.86-8.66 1.4l1.67-6.69c1.89.47 7.97 1.35 7 5.3z" fill="red"></path></svg>
