<svg xmlns="http://www.w3.org/2000/svg" width="60" height="60" viewBox="0 0 60 60" fill="none" version="1.1" id="svg146" class="calc-loans__badge"><circle cx="29.793" cy="30.151" fill="#6f9f74" id="circle142" r="16.701" stroke-width="1.856"></circle><path d="M35.36 33.22c0-3-2.59-3.69-4.5-4.45v-2.78c.64.2 1.08.62 1.37 1.34l2.95-1.63a5.21 5.21 0 00-4.31-3v-1.83h-1.54v1.8c-2.32.2-4.47 1.58-4.47 4.27 0 2.76 2.28 3.77 4.19 4.49.09.04.2.06.28.1v2.85c-.98-.17-1.62-.74-2.08-1.73l-3.02 1.65c.79 1.98 2.63 3.17 5.1 3.34v1.79h1.54v-1.81c2.6-.3 4.49-1.82 4.49-4.4zm-7-6.26c0-.5.34-.9.97-1.04v2.17c-.76-.41-.96-.74-.96-1.13zm2.5 7.38v-2.2c.66.3 1 .6 1 1.12 0 .44-.25.9-1 1.08z" fill="#fff" id="path144" stroke-width="1.856"></path></svg>
